<?xml version="1.0" standalone="no"?>
<!DOCTYPE svg PUBLIC "-//W3C//DTD SVG 20010904//EN"
 "http://www.w3.org/TR/2001/REC-SVG-20010904/DTD/svg10.dtd">
<svg version="1.0" xmlns="http://www.w3.org/2000/svg"
 width="1952.000000pt" height="1952.000000pt" viewBox="0 0 1952.000000 1952.000000"
 preserveAspectRatio="xMidYMid meet">
<metadata>
Created by potrace 1.14, written by Peter Selinger 2001-2017
</metadata>
<g transform="translate(0.000000,1952.000000) scale(0.100000,-0.100000)"
fill="#000000" stroke="none">
<path d="M6835 13429 c-16 -5 -45 -11 -65 -14 -19 -3 -57 -13 -85 -22 -27 -9
-52 -16 -55 -17 -3 0 -36 -15 -73 -33 -261 -127 -466 -360 -557 -633 -23 -69
-24 -70 -35 -140 -4 -25 -9 -54 -11 -65 -6 -29 -5 -214 1 -250 3 -16 7 -43 10
-60 9 -52 13 -68 33 -130 32 -95 96 -227 129 -263 7 -7 20 -26 29 -41 27 -46
193 -204 264 -250 119 -79 271 -139 405 -160 104 -16 319 -6 418 19 111 29
310 120 347 160 3 3 22 18 43 33 43 32 155 142 177 173 66 94 98 144 110 174
8 19 17 37 20 40 6 5 56 135 59 153 0 4 1 8 2 10 47 155 44 424 -6 568 -8 22
-14 40 -13 42 0 1 -7 19 -16 41 -9 21 -16 42 -16 46 0 4 -22 44 -50 90 -27 46
-50 87 -50 91 0 4 -4 9 -8 11 -4 2 -23 23 -42 47 -47 59 -136 143 -207 196
-46 34 -187 114 -213 120 -3 1 -12 4 -20 8 -45 17 -124 39 -188 51 -77 15
-289 18 -337 5z m270 -780 c57 -27 118 -87 146 -145 27 -57 32 -152 10 -213
-24 -65 -115 -160 -156 -162 -2 0 -19 -6 -37 -13 -19 -7 -57 -12 -88 -10 -193
12 -323 215 -247 386 69 156 230 224 372 157z"/>
<path d="M2636 12320 c-1 -3 -2 -377 -2 -832 1 -456 -2 -828 -6 -828 -3 0 -8
4 -10 9 -5 16 -128 141 -137 141 -5 0 -11 4 -13 9 -5 13 -106 91 -118 91 -5 0
-10 4 -10 9 0 7 -222 125 -239 127 -3 0 -26 7 -51 14 -25 7 -48 14 -52 16 -5
1 -9 2 -10 4 -4 3 -40 10 -77 16 -19 2 -37 7 -42 10 -20 12 -258 23 -265 12
-3 -5 -13 -4 -23 2 -10 5 -20 7 -23 5 -2 -2 -42 -7 -88 -10 -47 -3 -96 -7
-110 -10 -14 -3 -38 -8 -55 -11 -44 -9 -60 -12 -60 -14 0 -1 -9 -3 -20 -4 -44
-6 -209 -68 -293 -110 -191 -96 -358 -232 -497 -406 -60 -75 -125 -167 -125
-177 0 -3 -6 -14 -14 -22 -46 -53 -172 -342 -202 -466 -21 -86 -40 -190 -51
-280 -8 -70 -8 -339 0 -405 24 -181 59 -314 123 -475 29 -72 121 -256 132
-265 4 -3 13 -17 21 -32 50 -96 339 -418 376 -418 7 0 15 -3 17 -7 5 -12 75
-63 86 -63 6 0 12 -4 14 -8 7 -19 278 -151 278 -135 0 3 6 1 12 -5 14 -10 142
-47 199 -57 19 -3 41 -8 49 -10 99 -26 452 -23 560 5 19 5 46 11 60 14 81 15
309 114 351 152 8 8 19 14 23 14 14 0 152 116 216 182 36 37 68 68 71 68 2 0
4 -81 4 -180 0 -115 3 -181 10 -182 9 -3 728 -2 795 1 l25 1 -1 2250 c0 1238
-3 2253 -7 2256 -6 6 -150 9 -172 4 -5 -1 -12 -1 -15 0 -15 5 -140 4 -140 -2
0 -4 -6 -5 -14 -2 -21 8 -106 10 -106 2 0 -4 -7 -5 -15 -1 -22 8 -185 9 -185
1 0 -4 -12 -3 -27 1 -16 5 -37 5 -48 1 -11 -4 -24 -5 -29 -2 -12 7 -67 9 -70
2z m-716 -2003 c24 -6 51 -12 95 -21 31 -7 139 -53 177 -76 18 -11 40 -23 48
-27 8 -4 20 -12 26 -17 6 -6 28 -24 49 -41 79 -62 159 -164 213 -272 34 -67
78 -193 86 -249 4 -22 9 -52 12 -69 12 -61 6 -246 -10 -321 -39 -180 -145
-380 -260 -487 -91 -85 -216 -156 -341 -193 -88 -26 -86 -26 -265 -27 -184 -1
-257 13 -387 73 -109 51 -293 195 -293 230 0 5 -4 10 -10 10 -5 0 -10 5 -10
11 0 7 -6 17 -14 23 -20 15 -106 175 -106 195 0 9 -4 21 -8 26 -14 17 -32 83
-50 175 -2 14 -5 81 -7 149 -2 120 15 239 46 326 15 40 91 199 98 205 3 3 19
24 34 47 37 54 112 133 126 133 6 0 11 5 11 10 0 13 125 93 173 111 20 7 37
17 37 21 0 4 8 8 18 8 10 0 22 3 26 7 3 4 12 8 19 9 29 6 60 14 75 18 9 3 30
7 46 10 16 3 30 7 33 9 6 6 285 1 313 -6z"/>
<path d="M15719 11766 c-1 0 -2 -892 -3 -1982 -2 -1775 0 -1981 14 -1982 8 -1
89 -2 180 -1 91 0 170 0 175 0 55 -4 196 -3 200 1 3 3 23 2 44 -2 20 -4 47 -3
58 1 11 4 25 4 31 0 6 -3 36 -4 68 -1 l57 5 0 1980 0 1980 -412 1 c-226 1
-412 1 -412 0z"/>
<path d="M13466 11123 c-1 -2 -42 -5 -92 -7 -75 -4 -137 -14 -259 -40 -11 -2
-47 -12 -80 -22 -33 -10 -62 -19 -65 -19 -3 -1 -14 -5 -25 -10 -11 -4 -41 -16
-66 -26 -72 -27 -143 -62 -157 -76 -7 -7 -18 -13 -24 -13 -5 0 -30 -13 -55
-30 -24 -16 -46 -30 -49 -30 -6 0 -67 -47 -149 -115 -66 -54 -117 -106 -173
-175 -21 -25 -40 -47 -43 -50 -37 -32 -253 -410 -234 -410 3 0 -2 -11 -11 -25
-9 -14 -13 -25 -9 -25 4 0 3 -6 -2 -12 -5 -7 -18 -40 -27 -73 -10 -33 -22 -71
-27 -85 -5 -14 -11 -38 -14 -55 -2 -16 -9 -55 -15 -85 -6 -30 -14 -77 -17
-105 -8 -58 -8 -371 0 -430 15 -108 17 -120 43 -227 2 -10 6 -26 8 -35 2 -10
9 -30 15 -45 6 -16 9 -28 6 -28 -2 0 7 -25 20 -55 14 -30 25 -58 26 -63 5 -25
70 -161 107 -222 12 -19 25 -42 29 -50 3 -8 19 -31 35 -51 15 -20 28 -41 28
-47 0 -6 3 -12 8 -14 4 -1 26 -28 49 -58 116 -154 327 -318 538 -420 136 -67
330 -131 440 -146 17 -3 39 -7 50 -9 82 -17 477 -26 590 -12 75 9 127 17 155
24 14 3 34 7 45 9 27 4 172 49 210 65 17 7 32 13 35 13 16 4 154 74 205 104
69 41 202 139 259 191 35 33 54 52 122 126 12 13 43 51 69 85 38 50 45 63 35
75 -7 8 -16 15 -21 15 -5 0 -53 27 -108 59 -55 33 -117 69 -138 81 -68 38 -98
55 -103 60 -3 3 -21 14 -40 24 -19 11 -82 46 -138 78 l-104 59 -63 -65 c-35
-36 -66 -66 -69 -66 -5 0 -28 -17 -60 -45 -38 -34 -201 -105 -273 -120 -15 -3
-41 -9 -58 -13 -39 -9 -349 -8 -400 1 -22 4 -53 10 -70 13 -16 3 -48 10 -70
16 -22 6 -46 13 -53 14 -27 5 -163 74 -209 105 -90 62 -168 152 -224 259 -21
39 -35 70 -32 70 3 0 0 6 -6 14 -7 8 -13 22 -15 32 -2 11 -7 31 -11 45 l-6 26
1197 -1 c784 -1 1201 2 1210 9 36 28 49 437 20 636 -13 85 -55 255 -75 304 -5
11 -23 56 -41 100 -17 44 -47 109 -67 145 -35 65 -138 225 -158 246 -5 6 -30
35 -55 64 -48 57 -82 91 -151 155 -48 44 -166 135 -175 135 -3 0 -24 13 -47
29 -128 87 -378 178 -569 206 -87 12 -344 26 -352 18z m194 -757 c25 -3 56 -7
70 -11 14 -3 35 -7 47 -9 13 -3 27 -7 33 -11 5 -3 19 -8 29 -10 28 -5 139 -62
198 -101 86 -57 178 -166 233 -279 42 -84 74 -181 71 -212 -1 -8 -1569 -15
-1608 -7 -19 4 -21 8 -13 29 5 14 7 25 4 25 -4 0 -2 6 4 13 6 6 10 14 11 17 0
16 17 55 57 135 47 96 111 178 181 235 24 19 49 41 57 48 8 6 18 12 21 12 4 0
20 9 35 20 38 27 194 87 250 95 135 21 207 24 320 11z"/>
<path d="M17092 10691 l3 -416 400 -1 c220 0 405 1 411 3 7 3 10 129 10 416
l-1 412 -413 1 -412 1 2 -416z"/>
<path d="M5948 11095 c-2 -1 -34 -5 -73 -8 -38 -4 -90 -12 -115 -18 -25 -6
-49 -12 -55 -13 -38 -9 -118 -37 -144 -50 -17 -9 -34 -17 -38 -17 -5 -1 -26
-10 -48 -21 -167 -86 -316 -240 -395 -410 -17 -38 -32 -68 -33 -68 -1 0 -2
122 -1 270 l1 270 -414 -2 -414 -3 -2 -1608 c-2 -1422 0 -1607 13 -1608 94 -5
795 -2 803 3 9 5 12 227 13 860 1 775 3 859 18 918 71 266 248 449 521 538 33
11 78 24 100 28 22 4 47 9 55 11 8 3 75 5 148 5 l132 1 0 26 c1 28 1 830 0
871 0 22 -5 25 -35 26 -19 0 -36 0 -37 -1z"/>
<path d="M8057 11013 c-1 0 -18 -4 -37 -7 -50 -10 -52 -10 -89 -29 -136 -68
-222 -208 -216 -350 5 -105 20 -147 96 -259 22 -31 39 -62 39 -67 0 -6 4 -11
9 -11 5 0 14 -13 21 -30 7 -16 16 -30 20 -30 3 0 13 -12 21 -27 18 -37 92
-146 102 -154 5 -3 9 -10 10 -15 0 -5 37 -65 82 -134 45 -69 110 -170 145
-225 36 -55 68 -101 72 -103 5 -2 8 -8 8 -12 0 -8 13 -30 60 -100 6 -8 34 -51
62 -95 29 -44 83 -126 120 -183 37 -57 68 -107 68 -112 0 -5 3 -10 8 -12 10
-4 62 -86 62 -98 0 -5 3 -10 8 -10 4 0 30 -37 57 -81 28 -45 56 -87 63 -94 6
-8 12 -16 12 -19 0 -4 16 -30 60 -96 6 -8 34 -51 62 -95 67 -103 244 -375 258
-395 5 -8 36 -55 67 -105 32 -49 60 -92 63 -95 3 -3 11 -17 19 -32 8 -15 36
-53 64 -83 96 -108 241 -152 382 -114 110 30 177 90 270 241 51 83 171 264
177 266 5 2 8 8 8 13 0 11 132 213 143 217 4 2 7 8 7 12 0 7 121 199 170 270
57 83 81 120 95 148 10 17 22 32 27 32 5 0 6 5 3 10 -3 6 -2 10 2 10 5 0 19
20 33 45 14 25 28 45 32 45 5 0 8 7 8 15 0 8 5 15 10 15 6 0 10 5 10 10 0 6
16 34 35 63 20 28 40 59 45 67 5 8 51 79 102 157 51 79 127 196 169 260 148
227 227 349 311 478 47 72 85 134 86 139 0 5 4 12 9 15 22 15 133 202 148 249
27 81 17 210 -21 281 -28 53 -111 151 -128 151 -4 0 -20 8 -34 19 -15 10 -40
22 -57 26 -16 5 -37 10 -45 12 -13 4 -3389 10 -3393 6z m2613 -766 c0 -2 -9
-14 -20 -27 -11 -13 -20 -29 -20 -37 0 -7 -5 -13 -10 -13 -6 0 -13 -8 -17 -17
-6 -18 -73 -124 -84 -133 -3 -3 -11 -15 -18 -28 -7 -13 -59 -94 -115 -180 -56
-86 -127 -195 -158 -242 -30 -47 -86 -132 -124 -190 -38 -58 -71 -108 -72
-113 -6 -13 -170 -261 -181 -274 -6 -7 -11 -16 -11 -21 0 -5 -11 -22 -25 -38
-14 -16 -25 -32 -25 -37 0 -4 -13 -24 -28 -46 -30 -41 -38 -39 -65 12 -7 12
-38 61 -70 109 -31 47 -57 91 -57 96 0 6 -4 12 -9 14 -5 2 -37 48 -73 103 -83
128 -184 285 -263 405 -92 141 -205 315 -260 400 -26 41 -71 111 -100 155 -29
44 -55 86 -59 93 -6 9 183 12 928 12 515 0 936 -2 936 -3z"/>
<path d="M6505 10568 c-2 -7 -3 -632 -2 -1387 l2 -1375 400 -1 c220 0 405 1
412 3 9 3 12 322 12 1388 l0 1384 -410 0 c-319 0 -411 -3 -414 -12z"/>
<path d="M17090 8804 l0 -1012 413 0 414 0 -1 1011 -1 1012 -412 1 -413 1 0
-1013z"/>
<path d="M18729 9815 c-1 0 -3 -11 -4 -25 -3 -25 -2 -25 61 -24 35 1 64 -1 65
-5 1 -3 2 -73 3 -156 l1 -150 30 0 30 0 0 150 c0 83 4 153 8 156 5 4 33 6 63
5 37 -1 55 2 59 12 14 37 9 38 -155 38 -88 0 -161 -1 -161 -1z"/>
<path d="M19099 9807 c-1 -23 0 -312 2 -317 1 -3 1 -13 0 -22 -2 -13 5 -16 26
-14 l28 3 3 94 c1 52 2 107 2 124 -1 29 0 29 14 10 9 -11 16 -25 16 -32 0 -6
4 -13 8 -15 4 -1 28 -33 51 -70 25 -38 51 -68 60 -68 9 0 43 42 80 100 35 55
66 100 67 100 2 0 3 -52 3 -115 -1 -63 2 -118 5 -123 3 -5 16 -9 28 -8 23 1
23 1 24 179 2 140 -1 180 -11 183 -20 8 -52 -12 -68 -43 -8 -16 -39 -67 -70
-116 l-55 -87 -69 105 c-37 58 -72 112 -78 120 -13 18 -65 28 -66 12z"/>
<path d="M1607 7039 c-9 -5 -23 -22 -31 -37 -13 -25 -12 -33 3 -67 10 -22 19
-39 22 -37 2 2 16 1 32 -3 57 -15 118 37 109 92 -8 49 -88 80 -135 52z"/>
<path d="M3978 6985 c-2 -2 -15 -6 -28 -9 -59 -12 -70 -15 -106 -34 -86 -44
-137 -127 -133 -216 6 -128 79 -186 304 -240 186 -44 195 -48 235 -85 31 -30
37 -42 36 -71 -3 -43 -15 -80 -26 -80 -5 0 -15 -6 -22 -13 -64 -64 -309 -56
-436 15 -20 11 -41 24 -47 29 -15 15 -21 11 -45 -38 l-23 -46 24 -19 c13 -10
30 -23 37 -28 6 -6 12 -9 12 -6 0 3 19 -4 43 -14 63 -28 183 -47 273 -44 88 3
101 5 169 29 197 67 239 293 73 398 -34 21 -118 52 -183 66 -27 6 -59 13 -70
16 -11 2 -38 9 -60 15 -22 6 -50 14 -61 17 -35 8 -91 60 -97 89 -13 72 40 134
131 153 85 19 92 20 92 13 0 -4 19 -7 43 -6 56 1 160 -29 220 -63 4 -2 16 17
27 43 21 48 15 74 -16 74 -8 0 -14 4 -14 8 0 5 -6 9 -12 10 -7 0 -38 8 -68 17
-47 14 -262 29 -272 20z"/>
<path d="M9662 6979 c-185 -35 -240 -213 -108 -352 40 -43 42 -47 21 -47 -8 0
-15 -4 -15 -9 0 -5 -12 -14 -28 -20 -45 -19 -130 -104 -151 -152 -24 -53 -21
-137 5 -178 60 -93 172 -139 329 -135 65 1 107 8 150 25 55 20 132 64 145 81
3 4 34 -20 70 -53 l64 -59 37 41 37 41 -41 37 c-23 20 -51 46 -64 57 l-22 22
32 63 c29 57 37 83 41 128 1 11 -67 40 -94 41 -6 0 -34 -91 -32 -102 1 -5 -2
-8 -8 -8 -5 0 -10 -9 -10 -20 0 -33 -22 -23 -96 48 -38 37 -89 84 -113 104
l-42 37 29 15 c42 22 129 93 147 120 9 13 18 33 20 45 3 11 7 30 9 41 7 31
-14 93 -42 124 -54 58 -164 85 -270 65z m162 -104 c31 -21 45 -61 35 -101 -11
-38 -51 -74 -132 -120 -28 -15 -29 -15 -73 31 -24 26 -45 50 -45 54 -11 59 -2
99 26 128 33 33 144 37 189 8z m-113 -398 c19 -17 79 -72 132 -121 l97 -89
-27 -19 c-63 -43 -121 -60 -198 -61 -125 -1 -205 41 -221 116 -13 61 26 124
111 180 51 34 62 34 106 -6z"/>
<path d="M10 6536 l0 -443 258 3 c256 3 289 5 307 16 6 3 24 8 40 12 140 33
262 157 301 305 25 93 10 221 -36 311 -46 89 -152 171 -275 211 -64 20 -93 22
-332 25 l-263 3 0 -443z m550 310 c140 -52 212 -137 229 -267 11 -92 -10 -172
-65 -246 -27 -36 -126 -99 -167 -107 -15 -2 -32 -8 -38 -12 -15 -9 -369 -14
-370 -5 -3 20 -4 638 -1 648 6 20 355 10 412 -11z"/>
<path d="M10669 6956 c-1 -28 -1 -803 0 -837 1 -24 4 -25 59 -25 31 1 62 4 67
8 7 4 10 54 10 128 -1 89 2 123 11 127 7 2 88 6 181 7 175 3 220 12 303 60 70
40 122 113 134 188 3 21 6 41 7 45 1 4 1 10 0 13 -2 3 -4 23 -6 45 -11 119
-105 211 -255 249 -39 10 -120 14 -282 14 -226 0 -228 -1 -229 -22z m522 -118
c31 -14 66 -39 78 -57 27 -38 40 -114 28 -161 -11 -42 -53 -100 -73 -100 -7 0
-14 -4 -14 -9 0 -22 -110 -38 -256 -37 l-149 1 -1 185 c0 102 1 190 4 197 3 9
47 11 165 10 151 -2 166 -4 218 -29z"/>
<path d="M13984 6536 l-1 -441 66 0 66 0 0 32 c0 17 4 29 9 26 4 -3 5 3 2 14
-3 11 -6 44 -6 74 1 92 -1 122 -6 131 -3 4 -1 8 3 8 5 0 7 16 5 35 l-4 35 63
0 c35 1 144 1 242 1 l177 1 0 44 c0 24 0 47 0 52 0 4 -19 8 -42 9 -24 2 -51 4
-60 7 -10 2 -18 1 -18 -4 0 -4 -15 -5 -32 -1 -18 4 -48 4 -65 0 -18 -3 -33 -4
-33 0 0 3 -35 5 -77 3 -126 -4 -135 -4 -145 6 -10 10 -18 73 -9 67 7 -4 4 146
-3 153 -3 2 -1 14 5 25 9 15 8 18 -3 12 -10 -6 -10 -5 -1 5 6 7 9 19 6 26 -4
12 30 14 203 13 115 0 237 0 271 0 l61 1 -1 53 -2 52 -336 1 -335 2 0 -442z"/>
<path d="M7313 6905 c-8 -6 -14 -15 -13 -20 2 -6 2 -35 1 -66 l-1 -57 -42 0
c-87 1 -83 3 -80 -51 l4 -49 54 0 c30 1 57 -1 60 -4 3 -4 6 -98 6 -210 0 -194
1 -205 24 -254 20 -43 33 -55 79 -79 46 -23 68 -28 125 -27 68 1 167 32 158
49 -2 5 -10 23 -17 41 -12 29 -17 33 -40 28 -107 -26 -158 -15 -183 37 -19 40
-22 416 -4 418 6 0 52 1 103 1 l91 1 4 32 c8 67 3 70 -97 69 -49 -1 -96 1
-103 4 -8 3 -11 22 -9 63 2 32 1 63 -2 68 -9 13 -101 18 -118 6z"/>
<path d="M16208 6898 c-3 -7 -4 -40 -4 -74 l2 -60 -51 1 c-27 1 -55 0 -61 -2
-6 -2 -10 -25 -10 -51 1 -51 -6 -47 87 -51 l35 -1 -1 -192 c-2 -212 4 -257 40
-304 59 -77 213 -102 313 -50 37 19 36 15 18 57 -19 46 -26 51 -50 36 -12 -8
-45 -15 -74 -16 -48 -2 -57 1 -83 28 -16 17 -29 36 -30 43 -1 7 -2 100 -3 206
-1 164 1 192 14 193 8 1 54 1 103 1 59 0 87 3 88 11 2 17 2 70 0 82 -1 6 -39
10 -93 9 -51 0 -98 1 -104 3 -6 2 -9 32 -9 73 l2 70 -62 0 c-41 0 -64 -4 -67
-12z"/>
<path d="M1082 6762 c-4 -1 -6 -151 -6 -334 l1 -332 67 -2 66 -1 0 190 c0 115
5 205 12 228 23 78 104 136 193 141 l50 3 3 58 3 59 -54 -5 c-72 -7 -135 -33
-178 -74 l-36 -34 2 51 c1 27 -1 50 -4 51 -17 2 -112 4 -119 1z"/>
<path d="M1607 6762 c-13 -3 -17 -14 -18 -45 0 -48 0 -533 0 -588 l1 -37 65 2
65 1 0 85 c0 47 0 101 -1 120 0 19 -1 132 -2 250 l-2 215 -46 0 c-25 0 -53 -1
-62 -3z"/>
<path d="M1810 6754 c0 -5 11 -32 24 -60 22 -47 91 -190 152 -319 16 -33 29
-62 30 -65 0 -3 23 -52 51 -110 l51 -104 67 -2 67 -1 77 161 c42 89 90 188
105 222 15 33 52 110 80 170 41 85 50 110 39 114 -12 5 -74 5 -106 1 -9 -1
-87 -162 -87 -180 0 -6 -4 -11 -10 -11 -5 0 -10 -6 -10 -12 0 -7 -18 -49 -40
-93 -22 -44 -40 -85 -40 -90 0 -6 -6 -17 -12 -23 -7 -7 -13 -16 -14 -20 0 -4
-10 -29 -23 -57 l-24 -49 -18 39 c-10 22 -38 83 -62 135 -67 144 -85 185 -86
190 0 3 -19 43 -43 90 l-43 84 -62 1 c-38 0 -63 -4 -63 -11z"/>
<path d="M2836 6762 c-4 -3 -14 -7 -22 -8 -9 -1 -39 -14 -68 -28 -162 -80
-227 -285 -143 -454 64 -130 244 -207 417 -180 93 15 139 33 187 75 l33 28
-34 38 -35 38 -39 -26 c-56 -37 -119 -54 -191 -51 -104 5 -189 54 -226 131
-32 68 -46 65 275 62 252 -2 290 0 292 13 15 150 -52 269 -190 336 -48 23 -72
28 -154 30 -53 1 -99 0 -102 -4z m207 -123 c23 -12 50 -31 60 -43 20 -23 56
-95 57 -111 0 -7 -82 -10 -230 -10 -225 0 -230 0 -230 21 0 31 54 108 92 132
70 44 176 48 251 11z"/>
<path d="M4571 6760 c-4 -3 -7 -75 -7 -160 1 -85 -3 -161 -8 -167 -4 -7 -5
-13 0 -13 11 0 11 -100 1 -117 -5 -7 -5 -13 0 -13 4 0 8 -44 8 -98 l0 -97 58
-1 c32 0 61 4 65 10 3 6 7 99 7 206 0 183 2 198 23 239 29 55 41 67 94 91 51
23 135 26 181 6 92 -39 106 -83 105 -338 -1 -107 2 -200 5 -205 4 -6 32 -10
65 -9 l57 1 5 210 c6 240 13 266 89 320 39 27 50 30 125 30 74 0 86 -3 118
-27 65 -50 71 -75 72 -315 0 -140 4 -214 11 -215 5 0 35 -2 65 -2 l56 -2 -1
226 c-1 138 -6 241 -13 265 -20 71 -67 122 -147 161 -32 15 -61 19 -140 18
-86 0 -108 -4 -155 -26 -30 -14 -70 -40 -89 -58 -23 -23 -36 -29 -39 -21 -2 7
-13 21 -24 30 -11 9 -25 21 -32 27 -6 6 -37 20 -67 32 -108 40 -275 14 -340
-52 l-29 -30 0 47 c0 30 -4 47 -12 48 -50 4 -101 3 -107 -1z"/>
<path d="M6139 6766 c-3 -3 -23 -8 -45 -12 -21 -3 -67 -19 -101 -35 -49 -23
-61 -33 -56 -47 4 -9 9 -19 13 -22 3 -3 14 -18 24 -34 11 -17 21 -24 25 -18
10 16 91 50 137 59 158 28 272 -32 274 -143 0 -28 -4 -32 -30 -36 -16 -3 -35
-1 -41 3 -6 4 -24 3 -39 -1 -15 -4 -33 -4 -41 0 -7 5 -21 4 -31 -1 -12 -6 -18
-6 -18 0 0 6 -6 8 -12 6 -7 -2 -34 -6 -59 -9 -174 -17 -263 -123 -213 -255 19
-50 41 -73 95 -101 35 -18 122 -38 150 -35 8 1 40 5 72 9 60 7 124 33 146 60
20 24 30 19 26 -12 -5 -41 3 -47 68 -48 l58 -1 -3 251 c-3 242 -4 252 -26 291
-37 62 -65 83 -162 122 -26 11 -202 18 -211 9z m249 -375 c20 -1 22 -6 22 -49
0 -101 -101 -171 -229 -159 -98 8 -148 51 -139 119 7 53 46 79 133 87 52 5 88
5 213 2z"/>
<path d="M6746 6750 c-2 -8 -4 -159 -4 -335 l1 -320 63 -1 c58 0 64 2 65 20 0
12 2 104 3 206 3 203 7 219 68 276 37 35 83 53 146 57 44 2 44 2 44 62 0 60 2
58 -59 51 -31 -4 -63 -12 -70 -18 -7 -6 -13 -8 -13 -4 0 12 -62 -25 -91 -55
l-28 -29 -3 52 -3 51 -58 1 c-43 1 -58 -3 -61 -14z"/>
<path d="M7960 6751 c-179 -56 -279 -228 -234 -401 33 -128 112 -206 246 -245
82 -23 244 -22 282 3 6 4 13 7 16 7 17 2 81 40 98 58 l21 23 -34 38 -34 39
-33 -25 c-50 -37 -93 -51 -166 -53 -114 -4 -211 45 -252 126 -37 71 -48 68
228 68 136 0 269 0 295 0 l48 1 -2 48 c-7 140 -87 257 -208 303 -75 29 -197
34 -271 10z m195 -97 c77 -19 151 -98 150 -159 0 -19 -7 -20 -228 -20 l-229 0
6 30 c24 116 162 185 301 149z"/>
<path d="M8595 6762 c-20 -3 -20 -10 -18 -325 1 -177 2 -327 2 -333 1 -9 84
-13 123 -5 4 0 9 90 11 199 1 108 6 207 9 219 21 70 107 131 195 136 l48 3 2
58 1 59 -48 -6 c-69 -8 -126 -27 -149 -49 -11 -10 -25 -18 -30 -18 -5 0 -13
-9 -16 -20 -11 -33 -22 -14 -20 35 1 25 -2 45 -7 46 -22 3 -85 4 -103 1z"/>
<path d="M11738 6765 c-2 -2 -19 -7 -38 -10 -42 -7 -160 -61 -160 -72 0 -5 11
-25 25 -44 13 -20 21 -40 17 -45 -4 -4 11 3 33 15 22 13 71 31 110 41 157 40
275 -10 289 -122 2 -21 1 -40 -4 -43 -11 -7 -48 -8 -83 -2 -15 2 -29 1 -32 -2
-2 -4 -19 -6 -37 -4 -129 14 -237 -15 -296 -78 -17 -19 -34 -45 -37 -59 -12
-58 -13 -70 -6 -70 5 0 9 -6 8 -12 -2 -58 36 -108 107 -142 49 -23 71 -28 136
-28 98 -2 162 16 217 58 17 13 33 24 36 24 2 0 3 -17 1 -38 l-2 -38 52 2 c28
0 56 2 63 3 9 1 11 62 10 244 -2 226 -4 245 -24 282 -32 61 -55 82 -119 112
-51 24 -73 28 -160 30 -56 1 -103 0 -106 -2z m277 -420 c-1 -61 -14 -87 -66
-125 -73 -53 -212 -53 -269 0 -24 22 -30 36 -30 68 0 83 61 107 275 107 l90 0
0 -50z"/>
<path d="M12476 6762 c-4 -3 -13 -7 -21 -8 -18 -3 -94 -40 -116 -57 -31 -24
-51 -67 -54 -119 -7 -121 70 -178 275 -204 83 -10 149 -33 165 -58 25 -37 11
-79 -35 -105 -27 -15 -179 -23 -220 -11 -14 4 -45 13 -70 21 -25 7 -53 19 -62
27 -19 15 -38 9 -38 -14 0 -8 -3 -14 -7 -14 -11 0 -33 -51 -27 -61 3 -5 12 -9
20 -9 8 0 14 -4 14 -10 0 -5 9 -10 19 -10 11 0 22 -4 25 -9 3 -4 29 -12 58
-16 29 -5 64 -10 78 -12 189 -30 368 44 387 161 8 52 -5 104 -35 135 -42 44
-87 60 -232 85 -14 3 -25 5 -25 6 0 1 -11 3 -25 5 -14 3 -34 7 -45 9 -11 2
-25 5 -31 5 -6 1 -23 13 -38 28 -27 27 -30 51 -9 88 29 53 193 66 304 25 33
-13 61 -21 63 -19 2 2 15 23 29 45 l26 41 -25 12 c-13 6 -34 16 -47 22 -13 6
-36 13 -53 16 -45 8 -242 12 -248 5z"/>
<path d="M13105 6756 c-115 -37 -163 -83 -179 -171 -10 -55 42 -155 81 -155 7
0 13 -4 13 -9 0 -8 63 -28 115 -36 48 -8 170 -29 175 -30 63 -16 90 -72 56
-117 -11 -16 -25 -29 -30 -29 -6 -1 -22 -3 -36 -6 -108 -18 -252 2 -316 44
-14 8 -26 14 -28 12 -1 -2 -13 -23 -26 -47 -29 -52 -23 -61 66 -91 233 -78
481 -17 512 124 13 63 4 103 -33 144 -29 32 -49 42 -113 60 -42 11 -93 23
-112 25 -19 3 -46 8 -60 11 -14 4 -34 8 -45 9 -11 2 -23 4 -27 5 -20 4 -66 54
-63 69 2 9 4 23 4 29 1 7 19 25 41 39 31 20 54 27 102 28 70 3 156 -10 176
-26 6 -6 12 -7 12 -3 0 4 7 2 15 -5 22 -18 39 -7 64 39 l21 42 -44 19 c-60 25
-94 31 -206 36 -61 2 -109 -1 -135 -10z"/>
<path d="M14927 6763 c-3 -2 -20 -7 -38 -10 -40 -6 -141 -50 -150 -65 -6 -9
36 -88 46 -88 1 0 27 11 57 25 146 67 301 47 348 -45 21 -41 26 -85 11 -94 -5
-4 -21 -6 -35 -6 -14 0 -38 0 -53 -1 -16 0 -34 0 -40 0 -7 1 -21 1 -30 1 -10
0 -27 0 -38 0 -11 1 -24 1 -30 1 -53 2 -123 -17 -181 -48 -81 -43 -107 -162
-55 -246 53 -85 218 -124 356 -84 43 13 62 23 84 43 33 31 40 30 36 -4 -5 -42
4 -48 68 -48 l58 1 -4 240 c-2 132 -6 247 -8 255 -28 78 -71 122 -151 155 -46
19 -76 23 -152 23 -52 0 -97 -2 -99 -5z m271 -372 c8 -1 12 -18 12 -49 0 -89
-71 -148 -191 -159 -96 -9 -165 26 -176 90 -6 40 8 70 42 93 34 22 167 33 313
25z"/>
<path d="M15689 6765 c-3 -2 -17 -6 -32 -9 -38 -7 -113 -45 -136 -70 -11 -12
-26 -37 -34 -56 -12 -31 -13 -53 -8 -115 0 -8 17 -32 36 -53 28 -32 72 -55
125 -67 29 -6 83 -16 115 -20 70 -10 149 -36 162 -53 16 -21 16 -62 0 -82 -27
-35 -77 -48 -166 -45 -47 2 -93 5 -101 7 -41 11 -97 33 -116 45 -20 13 -24 12
-42 -14 -47 -68 -47 -69 11 -96 111 -52 297 -65 401 -28 107 37 156 92 158
174 1 71 -33 118 -112 154 -23 11 -71 22 -165 39 -61 11 -67 12 -94 20 -14 4
-28 8 -31 8 -19 4 -50 37 -53 57 -10 63 52 103 161 102 73 -1 113 -6 152 -21
14 -5 30 -11 35 -12 6 -1 15 -6 20 -10 7 -6 20 9 37 40 22 42 24 51 12 61 -8
6 -14 8 -14 4 0 -4 -6 -3 -13 3 -22 19 -108 34 -208 38 -53 2 -98 2 -100 -1z"/>
<path d="M16885 6760 c-129 -31 -218 -118 -254 -247 -10 -39 -18 -73 -16 -75
2 -2 5 -26 8 -53 11 -112 95 -221 204 -262 32 -13 69 -24 83 -26 14 -1 30 -5
35 -7 28 -14 153 0 223 24 44 16 121 65 122 78 0 4 -15 23 -33 43 l-34 37 -44
-30 c-58 -39 -81 -45 -164 -47 -128 -3 -236 67 -259 167 l-6 27 290 -1 c160 0
293 2 296 5 3 2 5 13 5 23 0 146 -65 255 -186 315 -53 26 -79 32 -147 35 -46
2 -101 -1 -123 -6z m200 -114 c77 -33 158 -153 113 -168 -11 -4 -420 -3 -439
1 -18 3 17 85 49 117 70 70 181 90 277 50z"/>
<path d="M17484 6430 l1 -335 63 0 c34 -1 62 2 63 5 0 3 2 93 3 200 2 209 9
244 57 290 34 32 103 61 152 63 l42 3 3 58 3 59 -55 -7 c-30 -3 -67 -11 -83
-18 -15 -6 -30 -11 -33 -10 -3 0 -23 -15 -45 -34 -22 -19 -42 -34 -45 -34 -3
0 -4 20 -2 45 3 33 0 45 -9 46 -8 0 -37 2 -65 3 l-52 1 2 -335z"/>
</g>
</svg>
