<svg xmlns="http://www.w3.org/2000/svg" width="346.131" height="282.116" viewBox="0 0 346.131 282.116">
  <g id="branding_pattern" transform="translate(1.607 2.069)">
    <path id="Path_437" data-name="Path 437" d="M342.833,1240.226l53.874,32.993-61.543,31.164Z" transform="translate(-230.97 -1085.166)" fill="none" stroke="#ffc900" stroke-linecap="round" stroke-linejoin="round" stroke-width="10"/>
    <path id="Path_438" data-name="Path 438" d="M503.717,1341.567l-32.124-13.507,31.224-22.274Z" transform="translate(-196.664 -1066.067)" fill="none" stroke="#ffc900" stroke-linecap="round" stroke-linejoin="round" stroke-width="5.537"/>
    <path id="Path_439" data-name="Path 439" d="M453.921,1161.113l3.329,39.44-37-20.469Z" transform="translate(-209.576 -1108.212)" fill="none" stroke="#ffc900" stroke-linecap="round" stroke-linejoin="round" stroke-width="6.124"/>
    <ellipse id="Ellipse_19" data-name="Ellipse 19" cx="17.092" cy="16.62" rx="17.092" ry="16.62" transform="matrix(0.23, -0.973, 0.973, 0.23, 143.885, 111.994)" fill="none" stroke="#00d4b5" stroke-linecap="round" stroke-linejoin="round" stroke-width="5.713"/>
    <ellipse id="Ellipse_20" data-name="Ellipse 20" cx="11.902" cy="11.736" rx="11.902" ry="11.736" transform="translate(19.95 77.295) rotate(-58.282)" fill="none" stroke="#00d4b5" stroke-linecap="round" stroke-linejoin="round" stroke-width="4.005"/>
    <ellipse id="Ellipse_21" data-name="Ellipse 21" cx="7.994" cy="7.773" rx="7.994" ry="7.773" transform="translate(0 237.423) rotate(-76.718)" fill="none" stroke="#00d4b5" stroke-linecap="round" stroke-linejoin="round" stroke-width="2.672"/>
    <path id="Path_440" data-name="Path 440" d="M513.645,1272.018c0,17.036-13.384,30.847-29.895,30.847s-29.894-13.811-29.894-30.847,13.384-30.847,29.894-30.847S513.645,1254.981,513.645,1272.018Z" transform="translate(-201.124 -1084.89)" fill="none" stroke="#00d4b5" stroke-linecap="round" stroke-linejoin="round" stroke-width="10.292"/>
    <path id="Path_441" data-name="Path 441" d="M492.065,1187.268a7.7,7.7,0,1,1-7.694-7.939,7.819,7.819,0,0,1,7.694,7.939" transform="translate(-195.386 -1102.906)" fill="#00affd"/>
    <path id="Path_443" data-name="Path 443" d="M316.106,1264.418a4.658,4.658,0,1,1-4.655-4.8,4.731,4.731,0,0,1,4.655,4.8" transform="translate(-238.104 -1079.517)" fill="#00affd"/>
    <path id="Path_444" data-name="Path 444" d="M395.307,1131.863a2.865,2.865,0,1,1-2.863-2.954,2.909,2.909,0,0,1,2.863,2.954" transform="translate(-217.287 -1117.593)" fill="#00affd"/>
    <path id="Path_445" data-name="Path 445" d="M528.691,1296.638a3.7,3.7,0,1,1-3.7-3.818,3.761,3.761,0,0,1,3.7,3.818" transform="translate(-184.168 -1069.844)" fill="#00affd"/>
    <rect id="Rectangle_190" data-name="Rectangle 190" width="19.187" height="19.187" rx="2.003" transform="matrix(0.707, -0.707, 0.707, 0.707, 198.014, 148.295)" fill="none" stroke="#622be2" stroke-linecap="round" stroke-linejoin="round" stroke-width="4.947"/>
    <path id="Path_446" data-name="Path 446" d="M363.582,1124.855l12.953,29.341a5.9,5.9,0,0,1-2.8,7.718L345.3,1175.278a5.577,5.577,0,0,1-7.48-2.887l-12.954-29.34a5.9,5.9,0,0,1,2.8-7.719l28.436-13.364A5.577,5.577,0,0,1,363.582,1124.855Z" transform="translate(-233.687 -1119.769)" fill="none" stroke="#622be2" stroke-linecap="round" stroke-linejoin="round" stroke-width="6"/>
    <path id="Path_447" data-name="Path 447" d="M449.154,1314.428l-31.363,14.677-14.223-32.363" transform="translate(-213.77 -1068.702)" fill="none" stroke="#f40031" stroke-linecap="round" stroke-linejoin="round" stroke-width="6.418"/>
    <path id="Path_448" data-name="Path 448" d="M509.878,1228.075l-11.951-10.732,10.4-12.332" transform="translate(-190.042 -1095.424)" fill="none" stroke="#f40031" stroke-linecap="round" stroke-linejoin="round" stroke-width="2.953"/>
    <path id="Path_449" data-name="Path 449" d="M315.844,1319.214l-14.94,5.443-5.275-15.416" transform="translate(-240.912 -1065.061)" fill="none" stroke="#f40031" stroke-linecap="round" stroke-linejoin="round" stroke-width="2.953"/>
    <path id="Path_450" data-name="Path 450" d="M453.738,1143.162l-16.747-5.738,5.56-17.279" transform="translate(-205.365 -1120.146)" fill="none" stroke="#f40031" stroke-linecap="round" stroke-linejoin="round" stroke-width="3.289"/>
    <path id="Path_451" data-name="Path 451" d="M339.242,1222.026l-22.868.035-.034-23.6" transform="translate(-235.704 -1097.332)" fill="none" stroke="#f40031" stroke-linecap="round" stroke-linejoin="round" stroke-width="4.262"/>
    <path id="Path_452" data-name="Path 452" d="M382.585,1331.3a15.468,15.468,0,0,1-19.4,10.669,16.135,16.135,0,0,1-10.338-20.021,15.467,15.467,0,0,1,19.4-10.669A16.135,16.135,0,0,1,382.585,1331.3Z" transform="translate(-226.695 -1064.671)" fill="none" stroke="#ff7400" stroke-linecap="round" stroke-linejoin="round" stroke-width="4"/>
    <line id="Line_38" data-name="Line 38" x1="27.483" y2="15.112" transform="translate(127.278 254.4)" fill="none" stroke="#ff7400" stroke-linecap="round" stroke-linejoin="round" stroke-width="4"/>
    <path id="Path_453" data-name="Path 453" d="M490.224,1155.291a9.819,9.819,0,0,1-12.964-5.55,10.359,10.359,0,0,1,5.381-13.377,9.82,9.82,0,0,1,12.963,5.552A10.355,10.355,0,0,1,490.224,1155.291Z" transform="translate(-195.429 -1115.648)" fill="none" stroke="#ff7400" stroke-linecap="round" stroke-linejoin="round" stroke-width="2.554"/>
    <line id="Line_39" data-name="Line 39" x1="18.363" y1="7.864" transform="translate(281.821 26.248)" fill="none" stroke="#ff7400" stroke-linecap="round" stroke-linejoin="round" stroke-width="2.554"/>
  </g>
</svg>
