<svg id="icon_quote-right-filled" xmlns="http://www.w3.org/2000/svg" width="25.564" height="16.027" viewBox="0 0 25.564 16.027">
  <g id="Group_2928" data-name="Group 2928">
    <g id="Group_2929" data-name="Group 2929">
      <path id="Path_7719" data-name="Path 7719" d="M6.039,0a6.086,6.086,0,0,0,0,12.172,5.993,5.993,0,0,0,1.37-.158A7.783,7.783,0,0,1,2.215,14a1.014,1.014,0,0,0,0,2.028,9.912,9.912,0,0,0,9.861-9.784c0-.052,0-.1,0-.157A6.068,6.068,0,0,0,6.038,0Z" fill="#00affd"/>
      <path id="Path_7720" data-name="Path 7720" d="M361.829,0a6.086,6.086,0,0,0,0,12.172,6,6,0,0,0,1.372-.159A7.786,7.786,0,0,1,358,14a1.014,1.014,0,0,0,0,2.028,9.913,9.913,0,0,0,9.863-9.782h0c0-.052,0-.1,0-.157A6.07,6.07,0,0,0,361.828,0Z" transform="translate(-342.305)" fill="#00affd"/>
    </g>
  </g>
</svg>
